<svg fill="#000000" xmlns="http://www.w3.org/2000/svg"  viewBox="0 0 64 64" width="64px" height="64px"><path d="M 32 6 C 17 6 16.5 24 11 31 C 11 33.728954 17.622035 41.405924 24.839844 44.279297 L 24.574219 47.335938 L 9 53 L 9.4433594 54.658203 C 9.7643594 56.586203 11.433672 58 13.388672 58 L 50.611328 58 C 52.566328 58 54.234641 56.586203 54.556641 54.658203 L 55 53 L 39.425781 47.335938 L 39.191406 44.638672 C 46.586699 42.149562 52 34.424347 52 33 C 52 27 48.508 6 32 6 z M 35 15.5 L 36 20 C 38.111093 20 39.708221 18.526841 40.480469 17.646484 C 41.760535 20.04678 42 22.815747 42 24.5 L 42 27.5 L 42.015625 28.050781 L 42.349609 28.464844 C 42.376609 28.497844 43 29.277 43 30.5 C 43 32.179 41.59875 33.300688 41.59375 33.304688 L 41.232422 33.578125 L 41.082031 34.007812 C 39.092031 39.727812 34.646 44 32 44 C 29.354 44 24.907969 39.727812 22.917969 34.007812 L 22.767578 33.578125 L 22.40625 33.304688 C 22.39225 33.293687 21 32.191 21 30.5 C 21 29.277 21.623719 28.497469 21.636719 28.480469 L 22 28.058594 L 22 27 L 22 24.5 C 22 24.352325 22.015424 24.155599 22.019531 23.992188 C 22.079455 23.972166 31.013396 20.98158 35 15.5 z M 27.744141 45.498047 C 29.184141 46.450047 30.646 47 32 47 C 33.354 47 34.816859 46.450047 36.255859 45.498047 L 36.832031 52.123047 C 35.818233 52.577795 34.289913 53 32 53 C 29.710087 53 28.181767 52.577795 27.167969 52.123047 L 27.744141 45.498047 z"/></svg>